/* XPM */
static char * mute_off_xpm[] = {
"16 16 15 1",
" 	c None",
".	c #000000",
"+	c #100000",
"@	c #080000",
"#	c #0D0000",
"$	c #0A0000",
"%	c #160000",
"&	c #020000",
"*	c #150000",
"=	c #0C0000",
"-	c #090000",
";	c #060000",
">	c #070400",
",	c #040000",
"'	c #0B0000",
"                ",
"        ..      ",
"        .+ .    ",
"       @#.   .  ",
"      .@$%      ",
" .....#@&* .  . ",
" .....=$..      ",
" .....-&..  .  .",
" ..;>@....  .  .",
" ..,.'....      ",
" ......... .  . ",
"      ....      ",
"       @..   .  ",
"        .. .    ",
"        ..      ",
"                "};
