/* XPM */
static char * mute_xpm[] = {
"24 24 10 1",
" 	c None",
".	c #000000",
"+	c #FF0000",
"@	c #600000",
"#	c #EF0000",
"$	c #700000",
"%	c #CF0000",
"&	c #BF0000",
"*	c #200000",
"=	c #6D0000",
"                        ",
"                        ",
"                 .  +   ",
"                .. ++   ",
"               ..@++    ",
"              ..@#+     ",
"             ..$+%      ",
"     .........@+&*      ",
"    .........@#%*.      ",
"    ........$+%...      ",
"    .......@+&*...      ",
"    ......@#%*....      ",
"    .....$+%......      ",
"    ....@+&*......      ",
"    ...@#%*.......      ",
"    ..$+%.........      ",
"     =+&*.........      ",
"     ++      .....      ",
"    ++        ....      ",
"   ++          ...      ",
"   +            ..      ",
"                 .      ",
"                        ",
"                        "};
