/* XPM */
static char * mute_xpm[] = {
"16 16 6 1",
" 	c None",
".	c #000000",
"+	c #150000",
"@	c #FF0000",
"#	c #230000",
"$	c #1B0000",
"                ",
"        ..      ",
"        .+@@    ",
"       .+@@     ",
"      .+@@      ",
" .....+@@#      ",
" ....+@@..      ",
" ...+@@#..      ",
" ..+@@....      ",
" .+@@#....      ",
" $@@......      ",
" @@   ....      ",
"@@     ...      ",
"@       ..      ",
"        ..      ",
"                "};
