/* XPM */
static char * mute_xpm[] = {
"16 16 11 1",
" 	c None",
".	c #000000",
"+	c #150000",
"@	c #FF0000",
"#	c #950000",
"$	c #B80000",
"%	c #B10000",
"&	c #230000",
"*	c #1B0000",
"=	c #CE0000",
"-	c #F60000",
"                ",
"                ",
"          .+@@  ",
"          +#@   ",
"        .+$%    ",
"   .....+#%&    ",
"   ....+$%..    ",
"   ...+#%&..    ",
"   ..+$%....    ",
"   .+#%&....    ",
"   *$%......    ",
"   =-   ....    ",
"  @@      ..    ",
"  @       ..    ",
"                ",
"                "};
