/* XPM */
static char * rec_xpm[] = {
"24 24 48 1",
" 	c None",
".	c #FF0000",
"+	c #FC0000",
"@	c #F30000",
"#	c #ED0000",
"$	c #EB0000",
"%	c #EE0000",
"&	c #F40000",
"*	c #FE0000",
"=	c #D20000",
"-	c #BE0000",
";	c #B30000",
">	c #B00000",
",	c #B50000",
"'	c #C20000",
")	c #DD0000",
"!	c #F70000",
"~	c #EF0000",
"{	c #C40000",
"]	c #AF0000",
"^	c #CD0000",
"/	c #CB0000",
"(	c #DC0000",
"_	c #B10000",
":	c #D60000",
"<	c #B20000",
"[	c #C60000",
"}	c #C50000",
"|	c #BB0000",
"1	c #CF0000",
"2	c #E90000",
"3	c #F00000",
"4	c #BC0000",
"5	c #C30000",
"6	c #FD0000",
"7	c #E10000",
"8	c #B60000",
"9	c #BD0000",
"0	c #EC0000",
"a	c #B70000",
"b	c #B80000",
"c	c #CE0000",
"d	c #F10000",
"e	c #F50000",
"f	c #E60000",
"g	c #DB0000",
"h	c #D80000",
"i	c #FB0000",
"                        ",
"                        ",
"                        ",
"                        ",
"          .....         ",
"        ........        ",
"       ..+@#$%&*.       ",
"      ..@=-;>,')!.      ",
"     ..~{>]]]]];^!.     ",
"     .@']]]]]]]]]/*.    ",
"    ..(>]]]]]]]]]_~.    ",
"    ..']]]]]]]]]]]:.    ",
"    ..<]]]]]]]]]]][.    ",
"    .._]]]]]]]]]]]}.    ",
"    ..|]]]]]]]]]]]1.    ",
"     .:>]]]]]]]]]>2.    ",
"      34]]]]]]]]]56     ",
"       78]]]]]]]90      ",
"        05a_]<bcd       ",
"         efgh)2i        ",
"                        ",
"                        ",
"                        ",
"                        "};
