/* XPM */
static char * rec_xpm[] = {
"16 16 34 1",
" 	c None",
".	c #FF0000",
"+	c #FC0000",
"@	c #EA0000",
"#	c #DC0000",
"$	c #D90000",
"%	c #E10000",
"&	c #F60000",
"*	c #FD0000",
"=	c #FB0000",
"-	c #DF0000",
";	c #B90000",
">	c #B20000",
",	c #B00000",
"'	c #B40000",
")	c #CA0000",
"!	c #EF0000",
"~	c #B30000",
"{	c #AF0000",
"]	c #BC0000",
"^	c #C20000",
"/	c #E90000",
"(	c #B10000",
"_	c #B50000",
":	c #DD0000",
"<	c #D00000",
"[	c #F30000",
"}	c #E00000",
"|	c #BF0000",
"1	c #D20000",
"2	c #CF0000",
"3	c #BE0000",
"4	c #C60000",
"5	c #E20000",
"                ",
"                ",
"                ",
"      ....      ",
"    .+@#$%&*    ",
"    =-;>,')!    ",
"   .#~{{{{{]=   ",
"   .^{{{{{{{/   ",
"   .({{{{{{{$   ",
"   ._{{{{{{{:   ",
"    <({{{{{'[   ",
"    }|{{{{>1    ",
"      2^345     ",
"                ",
"                ",
"                "};
