/* XPM */
static char * rec_xpm[] = {
"16 16 75 1",
" 	c None",
".	c #0F0F0F",
"+	c #320F0F",
"@	c #790F0F",
"#	c #AA0F0F",
"$	c #BA0F0F",
"%	c #202020",
"&	c #6E110F",
"*	c #C21311",
"=	c #E47B78",
"-	c #F5CDCC",
";	c #F9E2E1",
">	c #F2C5C4",
",	c #D76461",
"'	c #191919",
")	c #741411",
"!	c #C91713",
"~	c #F2B8B5",
"{	c #FAE4E2",
"]	c #F7DCDA",
"^	c #EEC5C3",
"/	c #C91813",
"(	c #741311",
"_	c #383838",
":	c #381210",
"<	c #D01D15",
"[	c #E8786D",
"}	c #F7D1CE",
"|	c #AFAFAF",
"1	c #941A14",
"2	c #D72217",
"3	c #F2AAA1",
"4	c #F5BEB7",
"5	c #941B14",
"6	c #515151",
"7	c #CD2517",
"8	c #DD2819",
"9	c #F3A99C",
"0	c #F3A89B",
"a	c #1C1C1C",
"b	c #FFFFFF",
"c	c #E32D1B",
"d	c #E32E1B",
"e	c #F08470",
"f	c #F29381",
"g	c #F2917F",
"h	c #F18571",
"i	c #DA301C",
"j	c #E8341E",
"k	c #ED573E",
"l	c #F27C64",
"m	c #F27E64",
"n	c #F17C64",
"o	c #E8351E",
"p	c #AB2A1A",
"q	c #ED3B20",
"r	c #F15C3F",
"s	c #F2694B",
"t	c #F2684B",
"u	c #451A13",
"v	c #F14322",
"w	c #F24C2C",
"x	c #F35633",
"y	c #F35836",
"z	c #F35533",
"A	c #F24D2C",
"B	c #F14222",
"C	c #C0C0C0",
"D	c #A12D1A",
"E	c #F54A25",
"F	c #3C3C3C",
"G	c #ECECEC",
"H	c #481C14",
"I	c #B7321D",
"J	c #E94322",
"     .....      ",
"   .+@#$#@+%    ",
"  .&*=-;>,*&'   ",
" .)!~{{{]^~/(_  ",
" :<[}}}}}}}[<:| ",
".12344444443256 ",
".7890090000087ab",
".cdefgfgfgghcd.b",
".ijklmnnnmnkoiab",
".pqqrsttssrqqp6b",
" uvvvwxyzAvBvuCb",
" %DEEEEEEEEEDFb ",
"  'DEEEEEEEDaGb ",
"   _HIJEJIHFGb  ",
"    |6a.a6Cbb   ",
"      bbbbb     "};
