/* XPM */
static char * rec_off_xpm[] = {
"16 16 48 1",
" 	c None",
".	c #000000",
"+	c #040404",
"@	c #273131",
"#	c #485C5C",
"$	c #526868",
"%	c #283232",
"&	c #3F5151",
"*	c #536969",
"=	c #0F1313",
"-	c #020202",
";	c #26302F",
">	c #4A5E5E",
",	c #3C4C4C",
"'	c #010101",
")	c #040604",
"!	c #3A4A49",
"~	c #415352",
"{	c #191F1F",
"]	c #060806",
"^	c #080A08",
"/	c #394947",
"(	c #FFFFFF",
"_	c #0B0D0B",
":	c #293533",
"<	c #2F3B3A",
"[	c #2E3A39",
"}	c #2A3634",
"|	c #0B0F0C",
"1	c #0D110E",
"2	c #1B2320",
"3	c #283230",
"4	c #0E120F",
"5	c #090B09",
"6	c #111512",
"7	c #1D2522",
"8	c #212B28",
"9	c #212927",
"0	c #131915",
"a	c #171D1A",
"b	c #1A221E",
"c	c #1B231F",
"d	c #181E1A",
"e	c #425454",
"f	c #161C18",
"g	c #111515",
"h	c #587070",
"i	c #0C100D",
"     .....      ",
"   ........+    ",
"  ...@#$#%...   ",
" ...&*****&..=  ",
" .-;>>>>>>>;-., ",
".')!~~~~~~~!)'{ ",
".]^/////////^]-(",
".__:<[<[<[[}__.(",
".|12333333324|-(",
".5667899887665{(",
" '000abcbd000'e(",
" +_fffffffff_g( ",
"  ._fffffff_-h( ",
"   =-i0f0i-gh(  ",
"    ,{-.-{e((   ",
"      (((((     "};
