/* XPM */
static char * sel_xpm[] = {
"16 16 15 1",
" 	c None",
".	c #1284CC",
"+	c #1075B5",
"@	c #073552",
"#	c #0C5888",
"$	c #000000",
"%	c #0F71AF",
"&	c #083B5B",
"*	c #0A4971",
"=	c #041D2D",
"-	c #0E679F",
";	c #020F17",
">	c #062C44",
",	c #0E6399",
"'	c #03131D",
"   ........     ",
"   ........     ",
"   .......+@    ",
"   .......#$    ",
"   %..&#..$$   $",
"  $#.*$#.*$$  $$",
"  $#&$$#+=$$ $$$",
"$$$=$$$==$$$$$$$",
"  $#=$$#-;$$ $$$",
"  $#+=$#.>$$  $$",
"   ,..=#..$$   $",
"   ...++..&$    ",
"   .......-'    ",
"   ........     ",
"   ........     ",
"   ........     "};
