/* XPM */
static char * sel_xpm[] = {
"24 24 3 1",
" 	c None",
".	c #1284CC",
"+	c #000000",
"     ............       ",
"     ............       ",
"     ............       ",
"     ............       ",
"     ...........++      ",
"     ...........++      ",
"     .....+....+++     +",
"    +....++....+++    ++",
"   ++...+++...++++   +++",
"   ++..++++...++++  ++++",
"  +++.+++++..+++++ +++++",
"++++++++++++++++++++++++",
"  +++.+++++..+++++ +++++",
"   ++..++++...++++  ++++",
"   ++...+++...++++   +++",
"    +....++....+++    ++",
"     .....+....+++     +",
"     ...........++      ",
"     ...........++      ",
"     ............       ",
"     ............       ",
"     ............       ",
"     ............       ",
"     ............       "};
