/* XPM */
static char * sel_off_xpm[] = {
"16 16 5 1",
" 	c None",
".	c #000000",
"+	c #041D2D",
"@	c #020F17",
"#	c #03131D",
"                ",
"                ",
"           .    ",
"          ..    ",
"      .   ..   .",
"  .  ..  ...  ..",
"  . ...  +.. ...",
"...+...++.......",
"  . ...  @.. ...",
"  .  ..  ...  ..",
"      .   ..   .",
"          ..    ",
"           #    ",
"                ",
"                ",
"                "};
