/* XPM */
static char * solo_off_xpm[] = {
"16 16 3 1",
" 	c None",
".	c #0427FD",
"+	c #3B9C5B",
"................",
"................",
"..++++...++++...",
"..+......+..+...",
"..+......+..+...",
"..++++...+..+...",
".....+...+..+...",
"..++++...++++...",
"................",
"..+......++++...",
"..+......+..+...",
"..+......+..+...",
"..+......+..+...",
"..++++...++++...",
"................",
"................"};
